<svg xmlns="http://www.w3.org/2000/svg" xmlns:xlink="http://www.w3.org/1999/xlink"><symbol id="close" viewBox="0 0 64 64"><path d="M35.4 32l19.9-19.9c1-1 1-2.4 0-3.4s-2.4-1-3.4 0L32 28.6 12 8.8c-.9-1-2.4-1-3.3 0s-1 2.4 0 3.4L28.6 32 8.7 51.9c-1 1-1 2.4 0 3.4.5.4 1 .7 1.7.7s1.2-.2 1.7-.7l20-19.9 20 19.8c.5.4 1.2.7 1.7.7s1.2-.2 1.7-.7c1-1 1-2.4 0-3.4L35.4 32z"/></symbol><symbol id="menu" viewBox="0 -53 384 384"><path d="M368 154.668H16c-8.832 0-16-7.168-16-16s7.168-16 16-16h352c8.832 0 16 7.168 16 16s-7.168 16-16 16zM368 32H16C7.168 32 0 24.832 0 16S7.168 0 16 0h352c8.832 0 16 7.168 16 16s-7.168 16-16 16zm0 245.332H16c-8.832 0-16-7.168-16-16s7.168-16 16-16h352c8.832 0 16 7.168 16 16s-7.168 16-16 16zm0 0"/></symbol></svg>