<svg viewBox="0 0 251 251" xmlns="http://www.w3.org/2000/svg"><path d="M242.801 140.725l-.273 3.202c3.967-.124 7.313-2.82 7.727-7.689.471-5.542-3.455-9.399-9.239-9.891-5.811-.494-10.333 2.644-10.804 8.186-.416 4.896 2.426 8.119 6.72 8.918l.273-3.202c-2.322-.414-4.546-1.985-4.242-5.563.352-4.143 3.962-5.489 7.783-5.164 3.793.322 7.124 2.259 6.771 6.402-.302 3.551-2.75 4.616-4.716 4.801zM229.549 144.532l-.793 3.114 7.221 1.839-1.166 4.579c-1.147 4.5-7.137 1.108-8.141 1.771l-.834 3.271.183.046c.568-.914 7.494 2.522 9.405-1.588l.052.013c-.023 2.279 1.154 4 3.771 4.667 3.401.866 5.997-1.12 6.977-4.966l2.033-7.98-18.708-4.766zm15.272 7.206l-1.073 4.213c-.487 1.91-1.386 3.798-4.081 3.112-2.721-.693-2.581-2.775-2.094-4.685l1.073-4.213 6.175 1.573zM234.525 167.744l4.824 2.041-4.186 9.897 2.512 1.062 5.437-12.856-17.78-7.52-5.543 13.105 2.512 1.062 4.291-10.146 5.397 2.283-3.671 8.678 2.536 1.073 3.671-8.679z"/><path d="M217.159 186.586l-4.706-1.06-1.714 2.782 20.148 4.1 1.77-2.874-12.715-16.169-1.713 2.781 3.064 3.727-4.134 6.713zm5.943-4.553l6.171 7.383-.028.046-9.357-2.21 3.214-5.219zM206.982 192.541l-2.083 2.446 12.621 10.749-3.991 4.687 2.076 1.768 10.083-11.841-2.076-1.768-4.009 4.708-12.621-10.749zM212.968 214.54l-13.35-13.945-2.321 2.222 13.35 13.945 2.321-2.222zM208.452 219.091l-17.06-11.182-2.748 2.14 6.666 19.278 2.684-2.09-5.829-15.481.021-.016 13.582 9.441 2.684-2.09zM185.759 225.688l2.564 4.567-9.371 5.26 1.335 2.378 12.172-6.832-9.449-16.835-12.408 6.965 1.335 2.378 9.606-5.392 2.868 5.109-8.217 4.612 1.348 2.402 8.217-4.612zM154.144 231.875l-2.839-3.9-3.123.961 12.442 16.368 3.226-.993 1.105-20.54-3.122.962-.154 4.822-7.535 2.32zm7.47.496l-.23 9.62-.052.016-5.575-7.832 5.857-1.804zM136.289 243.902l-3.186.42c1.073 3.59 4.106 5.941 9.085 5.285 5.514-.727 8.44-5.388 7.682-11.143-.762-5.782-4.421-9.576-9.962-8.846-2.891.381-4.54 1.715-5.571 3.811l-.053.008-1.042-2.532-2.195.289 1.323 10.038 8.646-1.139-.339-2.57-5.407.713c-.375-3.055 1.759-5.461 4.784-5.859 4.363-.575 6.154 2.893 6.63 6.506.473 3.587-.734 7.45-4.829 7.99-2.838.374-4.784-.759-5.566-2.971zM124.589 242.379l-.182 5.235-10.74-.373-.094 2.725 13.95.485.671-19.293-14.221-.494-.094 2.725 11.009.383-.204 5.855-9.417-.327-.096 2.752 9.418.327zM112.758 230.522l-3.154-.614-2.76 14.179-.053-.01-5.8-15.846-3.498-.681-3.69 18.949 3.154.614 2.771-14.231.053.01 5.763 15.893 3.525.686 3.689-18.949zM78.712 234.164l-3.004-1.14c-.97 3.848.706 7.805 5.275 9.539 5.2 1.974 9.985-.744 12.045-6.172 2.07-5.452.292-10.661-4.908-12.634-4.595-1.744-8.473.105-10.42 4.016l3.005 1.14c1.035-2.119 3.156-3.827 6.513-2.553 3.888 1.476 4.192 5.316 2.831 8.901-1.35 3.559-4.126 6.231-8.014 4.756-3.332-1.265-3.685-3.911-3.323-5.853zM70.276 237.776l-.085-13.507 3.851-6.63-2.778-1.614-3.852 6.63-11.775 6.618 2.965 1.723 8.845-5.229.047.027-.183 10.26 2.965 1.722zM24.978 199.653l1.622 2.022 19.737-6.251-1.622-2.021-19.737 6.25zM18.378 189.772l1.424 2.166 20.24-4.351-1.423-2.166-20.24 4.351zM8.743 144.503l-.65-3.147c-3.768 1.247-6.207 4.784-5.219 9.57 1.126 5.447 5.987 8.027 11.672 6.852 5.712-1.18 9.153-5.475 8.027-10.922-.994-4.813-4.636-7.093-8.98-6.636l.65 3.146c2.344-.264 4.923.61 5.65 4.126.841 4.072-2.237 6.39-5.991 7.166-3.728.77-7.473-.138-8.314-4.21-.721-3.49 1.322-5.208 3.155-5.945zM8.92 134.179l-5.233.222-.456-10.736-2.724.116.592 13.946 19.288-.819-.604-14.216-2.725.115.468 11.006-5.854.249-.4-9.415-2.751.117.4 9.415zM19.803 120.985l.371-3.191-14.348-1.667.006-.053 15.354-6.997.412-3.54-19.176-2.227-.371 3.191 14.402 1.673-.006.054-15.405 6.963-.415 3.567 19.176 2.227zM23.265 99.272l.852-3.098-15.984-4.397 1.632-5.935-2.629-.723-4.125 14.995 2.63.723 1.64-5.962 15.984 4.397zM26.164 89.092l1.318-2.93-6.797-3.056 1.938-4.31c1.904-4.235 7.22.139 8.324-.342l1.384-3.078-.172-.078c-.716.803-6.947-3.774-9.538-.054l-.049-.022c.416-2.241-.448-4.14-2.91-5.246-3.202-1.44-6.1.07-7.728 3.69l-3.377 7.51 17.607 7.916zm-13.802-9.728l1.782-3.965c.808-1.797 2.02-3.503 4.556-2.362 2.56 1.15 2.064 3.177 1.256 4.975l-1.783 3.965-5.811-2.613zM16.728 64.229l16.657 9.758 1.624-2.773-16.657-9.757-1.624 2.772zM31.607 58.447l4.044 11.111 2.23-3.018-3.332-8.168.016-.022 8.803.762 2.23-3.019-11.853-.631-3.965-10.448-2.069 2.802 3.119 7.775-.016.022-8.333-.717-2.069 2.802 11.195.75zM61.791 18.055l-2.176 1.407 4.202 20.273 2.176-1.408-4.202-20.272zM72.373 12.436l-2.302 1.193 2.244 20.58 2.302-1.192-2.245-20.581zM118.333 7.452l3.197-.321c-.851-3.876-4.117-6.669-8.98-6.18-5.534.557-8.602 5.126-8.021 10.902.584 5.803 4.5 9.67 10.034 9.112 4.89-.491 7.534-3.878 7.529-8.246l-3.197.321c.02 2.359-1.115 4.834-4.688 5.193-4.137.416-6.124-2.884-6.508-6.699-.381-3.788.909-7.418 5.046-7.834 3.546-.357 5.044 1.853 5.588 3.752zM124.872 19.727l3.206.21.488-7.436 4.715.31c4.634.304 2.394 6.813 3.23 7.68l3.368.221.012-.189c-1.003-.39 1.109-7.828-3.281-8.955l.003-.054c2.245-.393 3.722-1.866 3.899-4.56.23-3.502-2.197-5.691-6.158-5.951l-8.217-.54-1.265 19.264zm4.292-16.332l4.338.285c1.967.129 3.988.667 3.806 3.442-.184 2.802-2.257 3.045-4.224 2.916l-4.337-.285.417-6.358zM147.344 10.638l1.138-5.113 10.489 2.334.592-2.661-13.625-3.033-4.194 18.844 13.889 3.091.592-2.662-10.753-2.393 1.273-5.72 9.198 2.048.599-2.688-9.198-2.047z"/><path d="M168.69 24.167l-.191 4.82 3.045 1.183.39-20.557-3.146-1.221-13.605 15.428 3.046 1.182 3.111-3.688 7.35 2.853zm-5.552-5.022l6.146-7.404.05.02-.483 9.602-5.713-2.218zM176.339 33.012l2.784 1.603 8.274-14.366 5.334 3.073 1.361-2.363-13.477-7.762-1.361 2.363 5.358 3.086-8.273 14.366zM196.767 23.01l-11.299 15.652 2.605 1.88 11.299-15.652-2.605-1.88zM202.509 26.922l-7.982 18.772 2.594 2.325 17.792-9.977-2.533-2.27-14.203 8.48-.02-.018 6.885-15.041-2.533-2.271zM212.896 47.86l4.025-3.352 6.877 8.257 2.096-1.745-8.934-10.726-14.834 12.356 9.107 10.933 2.095-1.745-7.05-8.465 4.502-3.75 6.031 7.24 2.116-1.762-6.031-7.24zM245.234 89.835l-.837-2.453-20.686-.842.837 2.453 20.686.842zM248.037 101.199l-.602-2.521-20.514-2.794.602 2.521 20.514 2.794z"/></svg>
