<svg viewBox="0 0 76 19" xmlns="http://www.w3.org/2000/svg"><path d="M10.05 9.9h2.625c-.325-2.9-2.5-5.025-5.825-5.025-3.8 0-6.275 2.75-6.275 6.75s2.475 6.75 6.3 6.75c3.325 0 5.6-2.175 5.8-5.125H10.05c-.1 1.425-.925 2.975-3.175 2.975-2.6 0-3.675-2.2-3.675-4.6 0-2.4 1.1-4.6 3.675-4.6 2.25 0 3.075 1.575 3.175 2.875zm10.01 6.325c-2.326 0-3.7-1.775-3.7-3.925h9.8c0-4.55-2.026-7.425-6.15-7.425-3.85 0-6.276 2.6-6.276 6.75 0 4 2.425 6.75 6.4 6.75 3.275 0 5.175-1.85 5.825-4.275h-2.625c-.225.775-1.1 2.125-3.275 2.125zm-.05-9.275c2.124 0 3.524 1.425 3.524 3.4H16.36c0-1.975 1.525-3.4 3.65-3.4zm14.824-2.075c-2.2 0-3.525 1-4.2 2h-.05v-1.65h-2.625V18h2.625v-7.775c0-1.9 1.3-3.125 3.325-3.125 1.8 0 2.525 1.1 2.525 2.825V18h2.65V9.175c0-2.925-1.875-4.3-4.25-4.3zm12.506 2.5v-2.15h-2.4V1.2h-2.65v4.025h-1.85v2.15h1.85v7.15c0 2.7 1.15 3.65 3.25 3.65.7 0 1.275-.075 1.8-.2v-2.15c-1.7.1-2.4-.075-2.4-1.525V7.375h2.4zm9.083-2.45c-1.6 0-2.8 1.025-3.775 2.625l-.05.075.475-2.4h-2.625L47.948 18h2.625l1.275-6.45c.525-2.7 2.925-4.475 5.375-4.075l.4-2.45c-.35-.075-.675-.1-1.2-.1zm4.987-1.85c.65 0 1.4-.4 1.55-1.225.2-.975-.525-1.55-1.35-1.55-.65 0-1.4.4-1.575 1.2-.175 1 .55 1.575 1.375 1.575zm-1.9 2.15L57.01 18h2.625l2.5-12.775H59.51zm4.495 0l3.075 6.25L61.03 18h3.1l4.225-4.8h.05L70.73 18h3.025l-3.5-6.525 5.55-6.25H72.78l-3.775 4.5h-.05l-2.025-4.5h-2.925z"/></svg>
