<svg viewBox="0 0 59 242" xmlns="http://www.w3.org/2000/svg"><path d="M31.08 210.84v-8.4c-9.28 1.04-16.08 8-16.08 18.64 0 12.16 8.8 20.08 21.6 20.08s21.6-7.92 21.6-20.16c0-10.64-6.96-17.92-16.4-18.56v8.4c4.56.32 9.52 2.96 9.52 10.16 0 8.32-7.04 11.76-14.72 11.76-7.68 0-14.72-3.52-14.72-11.76 0-7.2 5.04-9.84 9.2-10.16zm20.24-32.029c0 7.44-5.68 11.84-12.56 11.84v-31.36c-14.56 0-23.76 6.48-23.76 19.68 0 12.32 8.32 20.08 21.6 20.08 12.8 0 21.6-7.76 21.6-20.48 0-10.48-5.92-16.56-13.68-18.64v8.4c2.48.72 6.8 3.52 6.8 10.48zm-29.68.16c0-6.8 4.56-11.28 10.88-11.28v22.96c-6.32 0-10.88-4.88-10.88-11.68zM15 131.531c0 7.04 3.2 11.28 6.4 13.44v.16h-5.28v8.4H57v-8.4H32.12c-6.08 0-10-4.16-10-10.64 0-5.76 3.52-8.08 9.04-8.08H57v-8.48H28.76c-9.36 0-13.76 6-13.76 13.6zm8-40.02h-6.88v7.68H3.24v8.48h12.88v5.92H23v-5.92h22.88c8.64 0 11.68-3.68 11.68-10.4 0-2.24-.24-4.08-.64-5.76h-6.88c.32 5.44-.24 7.68-4.88 7.68H23v-7.68zm-7.84-29.065c0 5.12 3.28 8.96 8.4 12.08l.24.16-7.68-1.52v8.4l40.88 8v-8.4l-20.64-4.08c-8.64-1.68-14.32-9.36-13.04-17.2l-7.84-1.28c-.24 1.12-.32 2.16-.32 3.84zM9.24 46.49c0-2.08-1.28-4.48-3.92-4.96-3.12-.64-4.96 1.68-4.96 4.32 0 2.08 1.28 4.48 3.84 5.04 3.2.56 5.04-1.76 5.04-4.4zm6.88 6.08l40.88 8v-8.4l-40.88-8v8.4zm0-14.386l20-9.84L57 47.703v-9.92l-15.36-13.52v-.16L57 16.663v-9.68l-20.88 11.2-20-17.76v9.68l14.4 12.08v.16l-14.4 6.48v9.36z" /></svg>
